# Blender v2.80 (sub 75) OBJ File: ''
# www.blender.org
mtllib Arrow.mtl
o Cylinder
v -0.000000 -0.000001 -0.999999
v 10.146223 0.000001 -1.000000
v -0.000000 -0.500001 -0.866025
v 10.146223 -0.499999 -0.866026
v 0.000000 -0.866026 -0.499999
v 10.146223 -0.866025 -0.500000
v 0.000000 -1.000001 0.000001
v 10.146223 -0.999999 -0.000000
v 0.000000 -0.866026 0.500001
v 10.146223 -0.866025 0.500000
v 0.000000 -0.500001 0.866026
v 10.146223 -0.499999 0.866025
v 0.000000 -0.000001 1.000001
v 10.146223 0.000001 0.999999
v 0.000000 0.499999 0.866026
v 10.146223 0.500001 0.866025
v -0.000000 0.866024 0.500001
v 10.146223 0.866026 0.500000
v -0.000000 0.999999 0.000001
v 10.146223 1.000001 -0.000000
v -0.000000 0.866025 -0.499999
v 10.146223 0.866026 -0.500000
v -0.000000 0.500000 -0.866025
v 10.146223 0.500001 -0.866026
v 10.146223 -0.718953 -1.245266
v 10.146223 0.000001 -1.437909
v 10.146223 -1.245265 -0.718955
v 10.146223 -1.437908 -0.000001
v 10.146223 -1.245265 0.718954
v 10.146223 -0.718954 1.245265
v 10.146223 0.000001 1.437908
v 10.146223 0.718955 1.245265
v 10.146223 1.245266 0.718954
v 10.146223 1.437909 0.000000
v 10.146223 1.245266 -0.718954
v 10.146223 0.718956 -1.245265
v 12.997448 -0.067942 -0.117682
v 12.997448 0.000001 -0.135887
v 12.997448 -0.117680 -0.067944
v 12.997448 -0.135885 -0.000001
v 12.997448 -0.117680 0.067942
v 12.997448 -0.067942 0.117680
v 12.997448 0.000001 0.135886
v 12.997448 0.067944 0.117680
v 12.997448 0.117682 0.067942
v 12.997448 0.135888 -0.000001
v 12.997448 0.117682 -0.067944
v 12.997448 0.067945 -0.117682
v 10.072547 0.000001 -1.000000
v 10.072547 -0.499999 -0.866026
v 10.072547 -0.866025 -0.500000
v 10.072547 -0.999999 -0.000000
v 10.072547 -0.866025 0.500000
v 10.072547 -0.499999 0.866025
v 10.072547 0.000001 0.999999
v 10.072547 0.500001 0.866025
v 10.072547 0.866026 0.500000
v 10.072547 1.000001 -0.000000
v 10.072547 0.866026 -0.500000
v 10.072547 0.500001 -0.866026
v 10.146223 0.540640 -0.936413
v 10.146223 0.000001 -1.081277
v 10.146223 -0.540638 -0.936414
v 10.146223 -0.936413 -0.540639
v 10.146223 -1.081276 -0.000001
v 10.146223 0.936414 -0.540638
v 10.146223 1.081278 -0.000000
v 10.146223 0.936414 0.540638
v 10.146223 0.540639 0.936413
v 10.146223 0.000001 1.081276
v 10.146223 -0.540638 0.936413
v 10.146223 -0.936412 0.540638
v 10.146223 0.708766 -1.227617
v 10.146223 -1.227616 -0.708765
v 10.146223 1.227618 -0.708765
v 10.146223 1.417530 0.000000
v 10.146223 1.227617 0.708765
v 10.146223 0.708765 1.227616
v 10.146223 0.000001 1.417529
v 10.146223 -0.708764 1.227616
v 10.146223 -1.227616 0.708764
v 10.146223 0.000001 -1.417530
v 10.146223 -0.708764 -1.227617
v 10.146223 -1.417529 -0.000001
vt 1.000000 0.996369
vt 1.000000 1.000000
vt 0.916667 1.000000
vt 0.916667 0.996369
vt 0.833333 1.000000
vt 0.833333 0.996369
vt 0.750000 1.000000
vt 0.750000 0.996369
vt 0.666667 1.000000
vt 0.666667 0.996369
vt 0.583333 1.000000
vt 0.583333 0.996369
vt 0.500000 1.000000
vt 0.500000 0.996369
vt 0.416667 1.000000
vt 0.416667 0.996369
vt 0.333333 1.000000
vt 0.333333 0.996369
vt 0.250000 1.000000
vt 0.250000 0.996369
vt 0.166667 1.000000
vt 0.166667 0.996369
vt 0.000000 1.000000
vt 0.083333 1.000000
vt 0.083333 1.000000
vt 0.000000 1.000000
vt 0.083333 1.000000
vt 0.083333 0.996369
vt 0.000000 1.000000
vt 0.000000 0.996369
vt 0.416667 1.000000
vt 0.500000 1.000000
vt 0.500000 1.000000
vt 0.416667 1.000000
vt 0.916667 1.000000
vt 1.000000 1.000000
vt 1.000000 1.000000
vt 0.916667 1.000000
vt 0.750000 1.000000
vt 0.833333 1.000000
vt 0.833333 1.000000
vt 0.750000 1.000000
vt 0.166667 1.000000
vt 0.166667 1.000000
vt 0.250000 1.000000
vt 0.250000 1.000000
vt 0.333333 1.000000
vt 0.333333 1.000000
vt 0.416667 1.000000
vt 0.500000 1.000000
vt 0.583333 1.000000
vt 0.583333 1.000000
vt 0.666667 1.000000
vt 0.666667 1.000000
vt 0.370000 0.457846
vt 0.250000 0.490000
vt 0.130000 0.457846
vt 0.042154 0.370000
vt 0.010000 0.250000
vt 0.042154 0.130000
vt 0.130000 0.042154
vt 0.250000 0.010000
vt 0.370000 0.042154
vt 0.457846 0.130000
vt 0.490000 0.250000
vt 0.457846 0.370000
vt 0.750000 1.000000
vt 0.666667 1.000000
vt 0.166667 1.000000
vt 0.083333 1.000000
vt 1.000000 1.000000
vt 0.916667 1.000000
vt 0.333333 1.000000
vt 0.583333 1.000000
vt 0.000000 1.000000
vt 0.833333 1.000000
vt 0.250000 1.000000
vt 0.083333 0.500000
vt 0.000000 0.500000
vt 0.166667 0.500000
vt 0.250000 0.500000
vt 0.333333 0.500000
vt 0.416667 0.500000
vt 0.500000 0.500000
vt 0.583333 0.500000
vt 0.666667 0.500000
vt 0.750000 0.500000
vt 0.833333 0.500000
vt 0.916667 0.500000
vt 1.000000 0.500000
vt 0.750000 1.000000
vt 0.666667 1.000000
vt 0.583333 1.000000
vt 0.500000 1.000000
vt 0.416667 1.000000
vt 0.333333 1.000000
vt 0.250000 1.000000
vt 0.166667 1.000000
vt 0.916667 1.000000
vt 0.833333 1.000000
vt 0.083333 1.000000
vt 1.000000 1.000000
vt 0.000000 1.000000
vn 0.0000 0.0000 -1.0000
vn -0.7703 0.0000 -0.6377
vn -0.7703 -0.3189 -0.5523
vn 0.0000 -0.5000 -0.8660
vn -0.7703 -0.5523 -0.3189
vn 0.0000 -0.8660 -0.5000
vn -0.7703 -0.6377 0.0000
vn 0.0000 -1.0000 0.0000
vn -0.7703 -0.5523 0.3189
vn 0.0000 -0.8660 0.5000
vn -0.7703 -0.3189 0.5523
vn 0.0000 -0.5000 0.8660
vn -0.7703 0.0000 0.6377
vn 0.0000 0.0000 1.0000
vn -0.7703 0.3189 0.5523
vn 0.0000 0.5000 0.8660
vn -0.7703 0.5523 0.3189
vn 0.0000 0.8660 0.5000
vn -0.7703 0.6377 0.0000
vn 0.0000 1.0000 0.0000
vn -0.7703 0.5523 -0.3189
vn 0.0000 0.8660 -0.5000
vn -1.0000 0.0000 0.0000
vn -0.4857 0.4370 -0.7570
vn -0.4857 0.0000 -0.8741
vn -0.7703 0.3189 -0.5523
vn 0.0000 0.5000 -0.8660
vn -0.4857 0.4370 0.7570
vn -0.4857 0.0000 0.8741
vn 0.8012 0.0000 0.5983
vn 0.8012 0.2992 0.5182
vn -0.4857 -0.4370 -0.7570
vn -0.4857 -0.7570 -0.4370
vn -0.4857 -0.8741 0.0000
vn -0.4857 0.7570 -0.4370
vn -0.4857 0.8741 0.0000
vn -0.4857 0.7570 0.4370
vn -0.4857 -0.4370 0.7570
vn -0.4857 -0.7570 0.4370
vn 0.8012 -0.2992 -0.5182
vn 0.8012 0.0000 -0.5983
vn 0.8012 0.2992 -0.5182
vn 0.8012 0.5182 -0.2992
vn 0.8012 0.5983 0.0000
vn 0.8012 0.5182 0.2992
vn 0.8012 -0.2992 0.5182
vn 0.8012 -0.5182 0.2992
vn 0.8012 -0.5983 0.0000
vn 0.8012 -0.5182 -0.2992
usemtl None
s 1
f 49/1/1 2/2/2 4/3/3 50/4/4
f 50/4/4 4/3/3 6/5/5 51/6/6
f 51/6/6 6/5/5 8/7/7 52/8/8
f 52/8/8 8/7/7 10/9/9 53/10/10
f 53/10/10 10/9/9 12/11/11 54/12/12
f 54/12/12 12/11/11 14/13/13 55/14/14
f 55/14/14 14/13/13 16/15/15 56/16/16
f 56/16/16 16/15/15 18/17/17 57/18/18
f 57/18/18 18/17/17 20/19/19 58/20/20
f 58/20/20 20/19/19 22/21/21 59/22/22
f 82/23/23 73/24/23 36/25/24 26/26/25
f 59/22/22 22/21/21 24/27/26 60/28/27
f 60/28/27 24/27/26 2/29/2 49/30/1
f 32/31/28 31/32/29 43/33/30 44/34/31
f 83/35/23 82/36/23 26/37/25 25/38/32
f 84/39/23 74/40/23 27/41/33 28/42/34
f 73/24/23 75/43/23 35/44/35 36/25/24
f 74/40/23 83/35/23 25/38/32 27/41/33
f 75/43/23 76/45/23 34/46/36 35/44/35
f 76/45/23 77/47/23 33/48/37 34/46/36
f 77/47/23 78/49/23 32/31/28 33/48/37
f 78/49/23 79/50/23 31/32/29 32/31/28
f 79/50/23 80/51/23 30/52/38 31/32/29
f 80/51/23 81/53/23 29/54/39 30/52/38
f 81/53/23 84/39/23 28/42/34 29/54/39
f 37/55/40 38/56/41 48/57/42 47/58/43 46/59/44 45/60/45 44/61/31 43/62/30 42/63/46 41/64/47 40/65/48 39/66/49
f 29/54/39 28/42/34 40/67/48 41/68/47
f 36/25/24 35/44/35 47/69/43 48/70/42
f 25/38/32 26/37/25 38/71/41 37/72/40
f 33/48/37 32/31/28 44/34/31 45/73/45
f 30/52/38 29/54/39 41/68/47 42/74/46
f 26/26/25 36/25/24 48/70/42 38/75/41
f 27/41/33 25/38/32 37/72/40 39/76/49
f 34/46/36 33/48/37 45/73/45 46/77/44
f 31/32/29 30/52/38 42/74/46 43/33/30
f 28/42/34 27/41/33 39/76/49 40/67/48
f 35/44/35 34/46/36 46/77/44 47/69/43
f 23/78/27 60/28/27 49/30/1 1/79/1
f 21/80/22 59/22/22 60/28/27 23/78/27
f 19/81/20 58/20/20 59/22/22 21/80/22
f 17/82/18 57/18/18 58/20/20 19/81/20
f 15/83/16 56/16/16 57/18/18 17/82/18
f 13/84/14 55/14/14 56/16/16 15/83/16
f 11/85/12 54/12/12 55/14/14 13/84/14
f 9/86/10 53/10/10 54/12/12 11/85/12
f 7/87/8 52/8/8 53/10/10 9/86/10
f 5/88/6 51/6/6 52/8/8 7/87/8
f 3/89/4 50/4/4 51/6/6 5/88/6
f 1/90/1 49/1/1 50/4/4 3/89/4
f 10/9/9 8/7/7 65/91/23 72/92/23
f 12/11/11 10/9/9 72/92/23 71/93/23
f 14/13/13 12/11/11 71/93/23 70/94/23
f 16/15/15 14/13/13 70/94/23 69/95/23
f 18/17/17 16/15/15 69/95/23 68/96/23
f 20/19/19 18/17/17 68/96/23 67/97/23
f 22/21/21 20/19/19 67/97/23 66/98/23
f 6/5/5 4/3/3 63/99/23 64/100/23
f 24/27/26 22/21/21 66/98/23 61/101/23
f 8/7/7 6/5/5 64/100/23 65/91/23
f 4/3/3 2/2/2 62/102/23 63/99/23
f 2/29/2 24/27/26 61/101/23 62/103/23
f 72/92/23 65/91/23 84/39/23 81/53/23
f 71/93/23 72/92/23 81/53/23 80/51/23
f 70/94/23 71/93/23 80/51/23 79/50/23
f 69/95/23 70/94/23 79/50/23 78/49/23
f 68/96/23 69/95/23 78/49/23 77/47/23
f 67/97/23 68/96/23 77/47/23 76/45/23
f 66/98/23 67/97/23 76/45/23 75/43/23
f 64/100/23 63/99/23 83/35/23 74/40/23
f 61/101/23 66/98/23 75/43/23 73/24/23
f 65/91/23 64/100/23 74/40/23 84/39/23
f 63/99/23 62/102/23 82/36/23 83/35/23
f 62/103/23 61/101/23 73/24/23 82/23/23
